<?xml version="1.0" encoding="utf-8"?>
<!-- Generator: Adobe Illustrator 25.4.1, SVG Export Plug-In . SVG Version: 6.00 Build 0)  -->
<svg version="1.1" id="Layer_1" xmlns="http://www.w3.org/2000/svg" xmlns:xlink="http://www.w3.org/1999/xlink" x="0px" y="0px"
	 viewBox="0 0 187.6 16.7" style="enable-background:new 0 0 187.6 16.7;" xml:space="preserve">
<style type="text/css">
	.st0{fill:#111111;}
</style>
<g>
	<g>
		<g>
			<path class="st0" d="M0,0.1h10.1v1.1H1.1v6.5h8v1.1h-8v6.6h9.3v1.1H0V0.1z"/>
			<path class="st0" d="M27.5,1.9c-0.5-0.2-1.1-0.4-1.7-0.6S24.3,1,23.6,1c-1.1,0-1.9,0.3-2.6,0.8c-0.6,0.5-1,1.2-1,2
				c0,0.6,0.2,1.1,0.6,1.5s0.9,0.8,1.4,1c0.6,0.3,1.2,0.6,1.9,0.8c0.5,0.2,1.1,0.4,1.6,0.7c0.5,0.2,1,0.5,1.4,0.9
				c0.4,0.4,0.8,0.8,1,1.3s0.4,1.2,0.4,1.9c0,0.9-0.2,1.7-0.6,2.4c-0.4,0.7-1,1.2-1.8,1.6c-0.8,0.4-1.7,0.6-2.7,0.6
				c-0.8,0-1.6-0.1-2.2-0.3c-0.7-0.2-1.2-0.4-1.7-0.7c-0.5-0.3-0.9-0.5-1.2-0.7l0.5-0.9c0.3,0.2,0.7,0.5,1.2,0.7s1,0.5,1.6,0.6
				c0.6,0.2,1.1,0.3,1.7,0.3c0.7,0,1.3-0.1,1.9-0.4s1.1-0.7,1.5-1.2c0.4-0.5,0.6-1.2,0.6-2c0-0.8-0.2-1.4-0.6-1.9
				c-0.4-0.5-0.9-0.9-1.5-1.2c-0.6-0.3-1.2-0.6-1.9-0.8c-0.5-0.2-1-0.4-1.6-0.6c-0.5-0.2-1-0.5-1.4-0.8c-0.4-0.3-0.8-0.7-1-1.1
				c-0.3-0.4-0.4-1-0.4-1.6c0-0.8,0.2-1.5,0.6-2c0.4-0.6,0.9-1,1.6-1.4C21.9,0.2,22.6,0,23.5,0c0.8,0,1.5,0.1,2.3,0.3
				c0.8,0.2,1.5,0.5,2.1,0.8L27.5,1.9z"/>
			<path class="st0" d="M35.7,0.1h10.7v1.1h-4.8v15.2h-1.1V1.2h-4.8V0.1z"/>
			<path class="st0" d="M54.9,0.1H65v1.1H56v6.5h8v1.1h-8v6.6h9.3v1.1H54.9V0.1z"/>
			<path class="st0" d="M74.2,0.1h9.2v1.1h-8v6.7h7.1V9h-7.1v7.5h-1.1V0.1z"/>
		</g>
	</g>
	<g>
		<g>
			<path class="st0" d="M95.9,0c1.7,0,3,0.3,4,1c1,0.7,1.5,1.7,1.5,3.2c0,1-0.2,1.8-0.7,2.4c-0.4,0.7-1.1,1.2-1.8,1.5
				s-1.7,0.6-2.7,0.6l-0.4-1.4c1.2,0,2.3,0.2,3.3,0.6c1,0.4,1.7,0.9,2.3,1.6s0.8,1.5,0.8,2.4c0,0.9-0.2,1.6-0.5,2.2
				c-0.3,0.6-0.7,1.1-1.3,1.5c-0.5,0.4-1.1,0.7-1.8,0.8c-0.7,0.2-1.4,0.3-2.1,0.3h-5.2V0H95.9z M96.3,7.1c0.8,0,1.4-0.2,1.8-0.7
				c0.4-0.5,0.6-1,0.6-1.6c0-0.8-0.2-1.3-0.7-1.7c-0.5-0.4-1.1-0.5-1.9-0.5h-2v4.6H96.3z M96.4,14.3c0.6,0,1.1-0.1,1.5-0.2
				c0.5-0.2,0.8-0.4,1.1-0.8c0.3-0.3,0.4-0.8,0.4-1.3c0-0.6-0.2-1-0.5-1.4c-0.3-0.3-0.7-0.6-1.2-0.7c-0.5-0.1-1-0.2-1.5-0.2H94v4.6
				H96.4z"/>
			<path class="st0" d="M108.2,16.7l7.4-17.4h0.2l7.4,17.4h-3.1l-5.2-13.2l1.9-1.3l-6,14.5H108.2z M112.9,10.5h5.7l0.9,2.3h-7.5
				L112.9,10.5z"/>
			<path class="st0" d="M130.6,0h11.1v2.6h-8.4V7h7.5v2.6h-7.5v4.6h8.7v2.6h-11.4V0z"/>
			<path class="st0" d="M165.1,17.3L152.2,4.9l0.8,0.3l0.1,11.5h-2.7V-0.6h0.1l12.7,12.5l-0.6-0.2l0-11.7h2.7L165.1,17.3L165.1,17.3
				z"/>
			<path class="st0" d="M172.6,16.7l7.4-17.4h0.2l7.4,17.4h-3.1l-5.2-13.2l1.9-1.3l-6,14.5H172.6z M177.3,10.5h5.7l0.9,2.3h-7.5
				L177.3,10.5z"/>
		</g>
	</g>
</g>
</svg>
